
<svg xmlns="http://www.w3.org/2000/svg" height="1000" viewBox="0 0 1000 1000" width="1000">
   <path class="fil0" d="M5.54 2.15l0.47 0.29c0.39,0.27 0.75,0.55 1.04,0.84 0.31,0.29 0.57,0.59 0.75,0.88 0.16,0.25 0.27,0.48 0.35,0.71 0.08,0.25 0.12,0.48 0.12,0.72l-0.03 0.32 -0.07 0.31 -0.36 1.02 0 0.92c2.11,-1.35 3.99,-2.14 4,-2.15l0.19 -0.08 0.18 0.08c0.04,0.02 13.5,5.67 8.83,12.75l0 2.77c0,0.26 -0.21,0.47 -0.48,0.47 -0.07,0 -0.14,-0.01 -0.2,-0.04 -1.27,-0.5 -2.63,-0.89 -4.03,-1.14 -1.37,-0.26 -2.82,-0.39 -4.3,-0.39 -1.49,0 -2.93,0.13 -4.31,0.39 -1.41,0.26 -2.77,0.65 -4.06,1.15 -0.24,0.09 -0.52,-0.03 -0.61,-0.27 -0.02,-0.06 -0.04,-0.12 -0.04,-0.17l0 -2.77c-1.38,-2.09 -1.17,-4.07 -0.19,-5.8l0 -5.72 -0.37 -1.02 -0.07 -0.31 -0.02 -0.32c0,-0.24 0.04,-0.48 0.12,-0.72 0.07,-0.23 0.19,-0.46 0.34,-0.71 0.19,-0.29 0.44,-0.59 0.75,-0.88 0.3,-0.29 0.65,-0.57 1.03,-0.83l0.73 -0.45 0.24 0.15zm2.27 7.13l0 0.01 -0.21 0.14c-0.83,0.58 -1.66,1.23 -2.39,1.96 -0.6,0.6 -1.14,1.25 -1.54,1.93l0 0c-0.83,1.44 -1.03,3.05 -0.02,4.73l0.04 -0.02 0.02 0 0.05 -0.02 0 0 0.06 -0.02 0 0 0.06 -0.03 0 0 0.06 -0.02 0.01 0 0.05 -0.02 0.01 0 0.05 -0.02 0.01 0 0.04 -0.02 0.03 -0.01 0.03 -0.01 0.03 -0.01 0.03 -0.01 0.03 -0.01 0.03 -0.01 0.04 -0.01 0.02 -0.01 0.04 -0.01 0.02 -0.01 0.05 -0.01 0.01 -0.01 0.05 -0.01 0 -0.01 0.06 -0.01 0 0 0.06 -0.02 0.01 -0.01 0.05 -0.01 0.01 -0.01 0.05 -0.01 0.02 -0.01 0.04 -0.01 0.02 -0.01 0.04 -0.01 0.03 -0.01 0.03 -0.01 0.03 -0.01 0.03 0 0.04 -0.02 0.02 0 0.04 -0.02 0.02 0 0.05 -0.01 0.01 -0.01 0.05 -0.01 0.01 -0.01 0.06 -0.01 0 0 0.06 -0.02 0.01 0 0.05 -0.02 0.01 0 0.05 -0.01 0.02 -0.01 0.04 -0.01 0.02 -0.01 0.04 -0.01 0.03 0 0.03 -0.01 0.04 -0.01 0.02 -0.01 0.04 -0.01 0.02 -0.01 0.05 -0.01 0.02 0 0.05 -0.01 0.01 -0.01 0.05 -0.01 0.01 0 0.06 -0.02 0.06 -0.01 0.01 -0.01 0.05 -0.01 0.01 0 0.05 -0.01 0.02 -0.01 0.05 -0.01 0.02 0 0.04 -0.01 0.03 -0.01 0.03 -0.01 0.03 -0.01 0.03 0 0.04 -0.01 0.02 -0.01 0.05 -0.01 0.02 0 0.05 -0.01 0.01 -0.01 0.05 -0.01 0.01 0 0.06 -0.01 0.06 -0.02 0.01 0 0.06 -0.01 0.01 0 0.05 -0.01 0.02 -0.01 0.04 -0.01 0.02 0 0.04 -0.01 0.03 0 0.04 -0.01 0.03 -0.01 0.03 0 0.04 -0.01 0.02 -0.01 0.05 -0.01 0.02 0 0.05 -0.01 0.01 0 0.06 -0.01 0 0 0.07 -0.01c1.44,-0.27 2.94,-0.41 4.47,-0.41 1.52,0 3.02,0.14 4.47,0.41l0.06 0.01 0.01 0 0.05 0.01 0.02 0 0.05 0.01 0.02 0 0.04 0.01 0.02 0.01 0.04 0.01 0.03 0 0.04 0.01 0.03 0.01 0.03 0 0.04 0.01 0.02 0 0.05 0.01 0.01 0.01 0.06 0.01 0.01 0 0.06 0.01 0.06 0.02 0.01 0 0.05 0.01 0.02 0 0.05 0.01 0.02 0.01 0.04 0.01 0.02 0 0.04 0.01 0.03 0.01 0.03 0.01 0.04 0.01 0.02 0 0.05 0.01 0.02 0.01 0.05 0.01 0.01 0 0.05 0.01 0.01 0.01 0.06 0.01 0.06 0.02 0.01 0 0.05 0.01 0.02 0 0.05 0.02 0.01 0 0.05 0.01 0.02 0.01 0.04 0.01 0.03 0.01 0.03 0 0.04 0.01 0.02 0.01 0.04 0.01 0.02 0.01 0.05 0.01 0.01 0 0.06 0.02 0 0 0.06 0.02 0 0 0.06 0.01 0.01 0 0.05 0.02 0.02 0 0.05 0.02 0.01 0 0.05 0.01 0.02 0.01 0.03 0.01 0.03 0.01 0.03 0.01 0.04 0.01 0.02 0.01 0.05 0.01 0.02 0.01 0.04 0.01 0.01 0 0.06 0.02 0 0 0.06 0.02 0 0 0.07 0.02 0.05 0.02 0.01 0 0.05 0.02 0.02 0 0.04 0.02 0.02 0 0.04 0.01 0.03 0.01 0.03 0.01 0.03 0.01 0.03 0.01 0.04 0.02 0.02 0 0.04 0.02 0.02 0 0.05 0.02 0 0 0.06 0.02 0 0 0.06 0.02 0 0 0.06 0.02 0.01 0.01 0.05 0.01 0.01 0.01 0.05 0.01 0.02 0.01 0.03 0.01 0.03 0.01 0.03 0.02 0.03 0.01 0.03 0.01 0.04 0.01 0.02 0.01 0.04 0.01 0.01 0.01c3.39,-5.62 -6.84,-10.42 -8.34,-11.09 -0.57,0.25 -2.36,1.08 -4.19,2.32zm12.25 11.56l0 -1.89 -0.06 -0.02 0 0 -0.11 -0.04 -0.01 0 -0.05 -0.02 -0.02 -0.01 -0.03 -0.01 -0.06 -0.02 -0.03 -0.01 -0.12 -0.04 -0.02 -0.01 -0.04 -0.01 -0.06 -0.03 -0.01 0 -0.06 -0.02 0 0 -0.06 -0.02 0 0 -0.06 -0.01 0 -0.01 -0.11 -0.03 -0.02 -0.01 -0.04 -0.01 -0.02 -0.01 -0.09 -0.03 -0.03 -0.01 -0.03 -0.01 -0.04 -0.01 -0.02 0 -0.04 -0.02 -0.02 0 -0.04 -0.02 -0.02 0 -0.04 -0.02 -0.07 -0.01 0 0 -0.06 -0.02 0 0 -0.06 -0.02 -0.01 0 -0.05 -0.02 -0.01 0 -0.04 -0.01 -0.02 -0.01 -0.04 -0.01 -0.03 -0.01 -0.03 -0.01 -0.03 0 -0.03 -0.01 -0.03 -0.01 -0.03 -0.01 -0.04 -0.01 -0.02 0 -0.04 -0.02 -0.02 0 -0.05 -0.01 -0.01 -0.01 -0.05 -0.01 -0.01 0 -0.05 -0.02 -0.01 0 -0.06 -0.01 0 0 -0.05 -0.02 -0.01 0 -0.05 -0.01 -0.02 -0.01 -0.04 -0.01 -0.02 0 -0.04 -0.01 -0.03 -0.01 -0.03 -0.01 -0.03 0 -0.03 -0.01 -0.04 -0.01 -0.02 -0.01 -0.04 0 -0.02 -0.01 -0.05 -0.01 -0.01 0 -0.05 -0.01 -0.01 -0.01 -0.06 -0.01 0 0 -0.06 -0.01 0 0 -0.06 -0.02 -0.01 0 -0.05 -0.01 -0.01 0 -0.05 -0.01 -0.02 -0.01 -0.05 -0.01 -0.01 0 -0.05 -0.01 -0.02 0 -0.04 -0.01 -0.03 -0.01 -0.03 0 -0.03 -0.01 -0.03 -0.01 -0.04 0 -0.02 -0.01 -0.05 -0.01 -0.01 0 -0.05 -0.01 -0.01 0 -0.06 -0.01 0 0 -0.06 -0.01c-1.38,-0.26 -2.82,-0.39 -4.3,-0.39 -1.49,0 -2.93,0.13 -4.3,0.39l-0.06 0.01 -0.01 0 -0.05 0.01 -0.01 0 -0.06 0.01 -0.01 0 -0.05 0.01 -0.02 0.01 -0.04 0 -0.02 0.01 -0.04 0.01 -0.03 0 -0.03 0.01 -0.04 0.01 -0.02 0 -0.04 0.01 -0.02 0 -0.05 0.01 -0.01 0.01 -0.05 0.01 -0.01 0 -0.06 0.01 0 0 -0.06 0.02 0 0 -0.06 0.01 -0.01 0 -0.05 0.01 -0.01 0.01 -0.05 0.01 -0.02 0 -0.04 0.01 -0.02 0.01 -0.04 0 -0.03 0.01 -0.03 0.01 -0.03 0.01 -0.03 0 -0.04 0.01 -0.02 0.01 -0.04 0.01 -0.02 0 -0.05 0.01 -0.01 0.01 -0.05 0.01 -0.01 0 -0.06 0.02 0 0 -0.06 0.01 0 0 -0.06 0.02 -0.01 0 -0.05 0.01 -0.01 0.01 -0.05 0.01 -0.02 0 -0.04 0.02 -0.02 0 -0.04 0.01 -0.02 0.01 -0.04 0.01 -0.03 0.01 -0.02 0 -0.04 0.01 -0.02 0.01 -0.04 0.01 -0.02 0.01 -0.05 0.01 -0.01 0 -0.05 0.02 -0.01 0 -0.05 0.02 -0.01 0 -0.05 0.02 -0.01 0 -0.06 0.01 -0.05 0.02 -0.01 0 -0.05 0.02 -0.02 0 -0.04 0.02 -0.02 0 -0.03 0.01 -0.03 0.01 -0.03 0.01 -0.1 0.03 -0.02 0.01 -0.04 0.01 -0.02 0.01 -0.1 0.03 -0.01 0.01 -0.06 0.01 0 0 -0.05 0.02 -0.01 0 -0.05 0.02 -0.01 0 -0.06 0.03 -0.05 0.01 -0.01 0.01 -0.13 0.04 -0.03 0.01 -0.05 0.02 -0.04 0.01 -0.02 0.01 -0.04 0.02 -0.01 0 -0.11 0.04 -0.01 0 -0.05 0.02 0 1.89c1.14,-0.4 2.34,-0.73 3.58,-0.95 1.45,-0.27 2.95,-0.41 4.48,-0.41 1.53,0 3.02,0.14 4.47,0.41 1.25,0.22 2.45,0.55 3.59,0.95zm-16.32 -13.19l0 3.94c0.25,-0.3 0.52,-0.59 0.8,-0.87 0.71,-0.71 1.51,-1.35 2.31,-1.92l0 -1.15c0,-0.65 0.21,-1.13 0.42,-1.72l0.03 -0.16 0.01 -0.18c0,-0.14 -0.02,-0.28 -0.06,-0.42 -0.06,-0.16 -0.14,-0.32 -0.25,-0.5 -0.14,-0.23 -0.35,-0.47 -0.6,-0.71 -0.26,-0.25 -0.57,-0.5 -0.91,-0.73l-0.19 -0.12 -0.2 0.12c-0.33,0.23 -0.64,0.48 -0.9,0.73 -0.25,0.24 -0.46,0.48 -0.61,0.71 -0.11,0.18 -0.19,0.34 -0.24,0.5 -0.05,0.14 -0.07,0.28 -0.07,0.42l0.01 0.18 0.04 0.16c0.2,0.59 0.41,1.07 0.41,1.72z"/>
</svg>
