
<svg xmlns="http://www.w3.org/2000/svg" height="24" viewBox="0 0 1000 1000" width="24">
  
  <path id="path10252" class="fil0" d="M20.97 18.95c4.83,-7.03 -8.97,-12.84 -8.97,-12.84 0,0 -13.81,5.81 -8.97,12.84 2.71,-1.07 5.75,-1.66 8.97,-1.66 3.22,0 6.26,0.59 8.97,1.66z"/>
  <path class="fil0" d="M20.97 20.02l0 1.98c-2.71,-1.06 -5.75,-1.66 -8.97,-1.66 -3.22,0 -6.26,0.6 -8.97,1.66l0 -1.98 0.36 -0.14c1.32,-0.52 2.72,-0.93 4.18,-1.19 1.41,-0.26 2.89,-0.4 4.43,-0.4 1.54,0 3.02,0.14 4.43,0.4 1.45,0.26 2.86,0.67 4.18,1.19l0.36 0.14z"/>
  <path id="path10324" class="fil0" d="M5.44 2.3c0.75,0.52 1.38,1.12 1.73,1.67 0.28,0.44 0.41,0.83 0.41,1.23 0,0.2 -0.02,0.34 -0.08,0.51l0 0.02 -0.01 0.02 -0.34 0.96 0 0.02 -0.01 0.01 -0.01 0.02 0 0.02 -0.01 0.02 -0.01 0.02 0 0.01 -0.01 0.02 -0.01 0.02 0 0.78c-1.5,0.99 -3.09,2.25 -4.27,3.71l0 -4.49 -0.01 -0.02 -0.01 -0.02 0 -0.01 -0.01 -0.02 0 -0.02 -0.01 -0.02 -0.01 -0.02 0 -0.01 -0.01 -0.02 -0.34 -0.96 -0.01 -0.02 0 -0.02c-0.06,-0.17 -0.08,-0.31 -0.08,-0.51 0,-0.4 0.13,-0.79 0.41,-1.23 0.35,-0.55 0.98,-1.15 1.73,-1.67l0.49 -0.3 0.48 0.3z"/>

</svg>
