
<svg xmlns="http://www.w3.org/2000/svg" height="24" viewBox="0 0 24 24" width="24">
  <path class="fil0" d="M4.66 2l14.68 0c1.47,0.04 2.66,1.25 2.66,2.73l0 1.27 0 1 0 12.28c0,1.5 -1.22,2.72 -2.72,2.72l-14.55 0c-1.5,0 -2.73,-1.22 -2.73,-2.72l0 -12.28 0 -1 0 -1.27c0,-1.48 1.19,-2.69 2.66,-2.73zm-1.66 5l18 0 0 12.28c0,0.47 -0.19,0.9 -0.51,1.21 -0.31,0.31 -0.74,0.51 -1.21,0.51l-14.55 0c-0.48,0 -0.91,-0.2 -1.22,-0.51 -0.31,-0.31 -0.51,-0.74 -0.51,-1.21l0 -12.28zm18 -1l-18 0 0 -1.27c0,-0.48 0.2,-0.91 0.51,-1.22l0.04 -0.04c0.3,-0.29 0.72,-0.47 1.18,-0.47l14.55 0c0.47,0 0.9,0.19 1.22,0.51 0.31,0.31 0.5,0.74 0.5,1.22l0 1.27z"/>
  <path class="fil1" d="M10.8 11l-3.6 0 -0.08 0.01 -0.06 0.05 -0.04 0.06 -0.02 0.08 0 6.6 0.02 0.08 0.04 0.06 0.06 0.05 0.08 0.01 3.6 0 0.08 -0.01 0.06 -0.05 0.05 -0.06 0.01 -0.08 0 -6.6 -0.01 -0.08 -0.05 -0.06 -0.06 -0.05 -0.08 -0.01zm-3.6 -1l3.6 0c0.16,0 0.32,0.03 0.46,0.09 0.15,0.06 0.28,0.16 0.39,0.26 0.11,0.11 0.2,0.24 0.26,0.39 0.06,0.15 0.09,0.3 0.09,0.46l0 6.6c0,0.16 -0.03,0.31 -0.09,0.46 -0.06,0.15 -0.15,0.28 -0.26,0.39 -0.11,0.11 -0.24,0.2 -0.39,0.26 -0.14,0.06 -0.3,0.09 -0.46,0.09l-3.6 0c-0.16,0 -0.31,-0.03 -0.46,-0.09 -0.15,-0.06 -0.28,-0.15 -0.39,-0.26 -0.1,-0.11 -0.19,-0.24 -0.25,-0.39 -0.06,-0.15 -0.1,-0.3 -0.1,-0.46l0 -6.6c0,-0.16 0.04,-0.31 0.1,-0.46 0.06,-0.15 0.15,-0.28 0.25,-0.39 0.11,-0.1 0.24,-0.2 0.39,-0.26 0.15,-0.06 0.3,-0.09 0.46,-0.09z"/>
</svg>
