<?xml version="1.0" encoding="UTF-8"?>
<!DOCTYPE svg PUBLIC "-//W3C//DTD SVG 1.1//EN" "http://www.w3.org/Graphics/SVG/1.1/DTD/svg11.dtd">
<!-- Creator: CorelDRAW 2021 (64-Bit) -->
<svg xmlns="http://www.w3.org/2000/svg" xml:space="preserve" width="24px" height="24px" version="1.1" style="shape-rendering:geometricPrecision; text-rendering:geometricPrecision; image-rendering:optimizeQuality; fill-rule:evenodd; clip-rule:evenodd"
viewBox="0 0 24 24"
 xmlns:xlink="http://www.w3.org/1999/xlink"
 xmlns:xodm="http://www.corel.com/coreldraw/odm/2003">
 <defs>
  <style type="text/css">
   <![CDATA[
    .fil0 {fill:black}
   ]]>
  </style>
 </defs>
 <g id="Layer_x0020_1">
  <metadata id="CorelCorpID_0Corel-Layer"/>
  <path class="fil0" d="M4.72 2l14.55 0c1.5,0 2.73,1.23 2.73,2.73l0 1.27 -20 0 0 -1.27c0,-1.5 1.22,-2.73 2.72,-2.73zm6.08 8.5l-3.6 0c-0.19,0 -0.37,0.08 -0.49,0.2 -0.13,0.13 -0.21,0.31 -0.21,0.5l0 6.6c0,0.19 0.08,0.37 0.21,0.49 0.12,0.13 0.3,0.21 0.49,0.21l3.6 0c0.19,0 0.37,-0.08 0.5,-0.21 0.12,-0.12 0.2,-0.3 0.2,-0.49l0 -6.6c0,-0.19 -0.08,-0.37 -0.2,-0.5 -0.13,-0.12 -0.31,-0.2 -0.5,-0.2zm11.2 -3.5l0 12.28c0,1.5 -1.23,2.72 -2.73,2.72l-14.55 0c-1.5,0 -2.72,-1.22 -2.72,-2.72l0 -12.28 20 0z"/>
 </g>
</svg>
