
<svg xmlns="http://www.w3.org/2000/svg" height="24" viewBox="0 0 1000 1000" width="24">
   <path class="fil0" d="M4.72 2l14.55 0c1.5,0 2.73,1.23 2.73,2.73l0 1.27 -20 0 0 -1.27c0,-1.5 1.22,-2.73 2.72,-2.73zm6.08 8.5l-3.6 0c-0.19,0 -0.37,0.08 -0.49,0.2 -0.13,0.13 -0.21,0.31 -0.21,0.5l0 6.6c0,0.19 0.08,0.37 0.21,0.49 0.12,0.13 0.3,0.21 0.49,0.21l3.6 0c0.19,0 0.37,-0.08 0.5,-0.21 0.12,-0.12 0.2,-0.3 0.2,-0.49l0 -6.6c0,-0.19 -0.08,-0.37 -0.2,-0.5 -0.13,-0.12 -0.31,-0.2 -0.5,-0.2zm11.2 -3.5l0 12.28c0,1.5 -1.23,2.72 -2.73,2.72l-14.55 0c-1.5,0 -2.72,-1.22 -2.72,-2.72l0 -12.28 20 0z"/>

</svg>
