<?xml version="1.0" encoding="UTF-8" standalone="no"?>
<!-- Created with Inkscape (http://www.inkscape.org/) -->

<svg
   version="1.1"
   id="svg182"
   width="396.94482"
   height="305.04974"
   viewBox="0 0 396.94482 305.04974"
   sodipodi:docname="Natiq - Logo.svg"
   inkscape:version="1.2 (dc2aedaf03, 2022-05-15)"
   inkscape:export-filename="..\Documents\Natiq - Logo.svg"
   inkscape:export-xdpi="96"
   inkscape:export-ydpi="96"
   xmlns:inkscape="http://www.inkscape.org/namespaces/inkscape"
   xmlns:sodipodi="http://sodipodi.sourceforge.net/DTD/sodipodi-0.dtd"
   xmlns="http://www.w3.org/2000/svg"
   xmlns:svg="http://www.w3.org/2000/svg">
  <defs
     id="defs186" />
  <sodipodi:namedview
     id="namedview184"
     pagecolor="#ffffff"
     bordercolor="#111111"
     borderopacity="1"
     inkscape:showpageshadow="0"
     inkscape:pageopacity="0"
     inkscape:pagecheckerboard="1"
     inkscape:deskcolor="#d1d1d1"
     showgrid="false"
     inkscape:zoom="11.313709"
     inkscape:cx="1623.6497"
     inkscape:cy="803.2733"
     inkscape:window-width="1920"
     inkscape:window-height="1017"
     inkscape:window-x="-8"
     inkscape:window-y="-8"
     inkscape:window-maximized="1"
     inkscape:current-layer="g188"
     showguides="true">
    <sodipodi:guide
       position="64.894308,418.28689"
       orientation="0,-1"
       id="guide424644"
       inkscape:locked="false" />
    <sodipodi:guide
       position="340.7003,1.4589844e-05"
       orientation="0,-1"
       id="guide429467"
       inkscape:locked="false" />
  </sodipodi:namedview>
  <g
     inkscape:groupmode="layer"
     inkscape:label="Image"
     id="g188"
     transform="translate(-1137.1139,-416.83496)">
    <path
       style="fill:#000000"
       d="m 1188.4416,710.98241 -2.3565,-5.40227 26.3764,-11.49224 36.4092,-15.86354 35.0724,-15.28113 27.3714,-11.92577 c -2.212,-1.02928 -4.4573,-2.07407 -6.3503,-2.95493 -56.4158,-25.93708 -116.0491,-48.81504 -163.1003,-70.10989 l -4.75,-2.16154 3.8519,-8.4717 3.8518,-8.4717 c 2.4162,1.0282 4.8325,2.05641 7.2487,3.08461 l 7.2487,3.08461 v 0 c 24.0608,-49.77418 50.7027,-104.98342 70.4073,-148.14059 v 0 l 105.6389,47.06306 c 15.9173,-7.07758 32.0781,-14.14588 47.9969,-21.21994 19.3766,-8.6106 38.7493,-17.22972 58.1061,-25.88448 v 0 0 c 23.7194,50.93746 47.4405,101.49446 70.422,148.22191 v 8e-5 l 7.0315,-3.08613 7.0314,-3.08614 v 0 l 4.6372,9.22345 3.4724,7.269 -4.2224,2.14587 -4.2224,2.14587 c -54.3898,24.29706 -108.7994,44.7638 -158.3488,67.9176 l -7.3487,3.434 v 0 l 22.7037,9.88243 c -13.9549,-6.12632 9.1013,3.85997 45.9711,19.80034 10.335,4.46829 21.7555,9.40442 33.7504,14.58464 7.3283,3.16488 14.8711,6.42087 22.5118,9.71695 l -3.5196,8.43993 -3.5196,8.43992 v 0 c -7.562,-3.23818 -15.1193,-6.4796 -22.6711,-9.72048 -15.5452,-6.67124 -31.0669,-13.34022 -46.5575,-19.97406 -11.3473,-4.85948 -22.6779,-9.70008 -33.9887,-14.50894 -13.1067,-5.5724 -26.1868,-11.10215 -39.2357,-16.56915 l -35.5853,15.19861 -38.8221,16.58106 -38.6702,16.51618 -29.2126,12.47678 v 0 c -1.4745,-3.66347 -3.0506,-7.28295 -4.6294,-10.90228 z m 144.6723,-85.09772 v -76.37686 -76.37685 0 l -89.3431,-40.30318 v 0 c -16.4738,41.59714 -36.5103,89.59344 -50.6569,125.1489 0,0.63116 0,-0.63116 0,0 m 285.3799,0 -0.3799,-0.905 c -18.132,-45.50913 -33.3762,-83.5829 -50.1089,-124.87452 -14.1841,6.38798 -28.3683,12.77596 -42.5524,19.16394 l -48.3387,21.76986 V 549.25 625.88468 c 53.4552,-24.68525 91.9292,-44.3806 141.3799,-67.90798 z"
       id="path424590"
       sodipodi:nodetypes="cccscccccccccccccsccccccccccccccccssccccsssccccccccccccccccccscccc" />
  </g>
</svg>
