<?xml version="1.0" encoding="UTF-8"?>
<!-- Created with Inkscape (http://www.inkscape.org/) -->
<svg width="460" height="460" version="1.1" viewBox="0 0 460 460" xmlns="http://www.w3.org/2000/svg">
 <path d="m82.855 371.62-2.3565-5.4023 125.23-54.563c-2.212-1.0293-4.4573-2.0741-6.3503-2.9549-56.416-25.937-116.05-48.815-163.1-70.11l-4.75-2.1615 3.8519-8.4717 3.8518-8.4717c2.4162 1.0282 4.8325 2.0564 7.2487 3.0846l7.2487 3.0846c24.061-49.774 50.703-104.98 70.407-148.14l105.64 47.063c15.917-7.0776 32.078-14.146 47.997-21.22 19.377-8.6106 38.749-17.23 58.106-25.884 23.719 50.937 47.44 101.49 70.422 148.22v8e-5l14.063-6.1723 4.6372 9.2234 3.4724 7.269-8.4448 4.2917c-54.39 24.297-108.8 44.764-158.35 67.918l-7.3487 3.434 22.704 9.8824c-13.955-6.1263 9.1013 3.86 45.971 19.8 10.335 4.4683 21.756 9.4044 33.75 14.585 7.3283 3.1649 14.871 6.4209 22.512 9.717l-7.0392 16.88c-7.562-3.2382-15.119-6.4796-22.671-9.7205-15.545-6.6712-31.067-13.34-46.558-19.974-11.347-4.8595-22.678-9.7001-33.989-14.509-13.107-5.5724-26.187-11.102-39.236-16.569l-142.29 60.773c-1.4745-3.6635-3.0506-7.283-4.6294-10.902zm144.67-85.098v-152.75l-89.343-40.303c-16.474 41.597-36.51 89.593-50.657 125.15v0m285.38 0-0.3799-0.905c-18.132-45.509-33.376-83.583-50.109-124.87-14.184 6.388-28.368 12.776-42.552 19.164l-48.339 21.77v152.75c53.455-24.685 91.929-44.381 141.38-67.908z"/>
 <path d="m1398.3-7.5756v-76.5l0.2741 38.25 0.2742 38.25-0.2742 38.25-0.2741 38.25z" fill="#ccc"/>
</svg>
